DBRep_DrawableShape

CASCADE Topology V1, (c) Matra-Datavision
Locations 0
Curve2ds 0
Curves 8
1 -0.70710678118654746 0.70710678118654757 -0.5 -1.5700924586837752e-16 -1 0 
6 0 1 -0.70710678118654768 -0.70710678118654746 -0.5  0 0 0.5  
6 0 1 -0.70710678118654746 0.70710678118654757 -0.5  0 0 0.5  
1 -0.70710678118654768 -0.70710678118654746 -0.5 1 -1.5700924586837749e-16 0 
6 0 1 0.70710678118654746 -0.70710678118654768 -0.5  0 0 0.5  
1 0.70710678118654746 -0.70710678118654768 -0.5 7.8504622934188746e-17 1 0 
6 0 1 0.70710678118654757 0.70710678118654746 -0.5  0 0 0.5  
1 0.70710678118654757 0.70710678118654746 -0.5 -1 7.8504622934188758e-17 0 
Polygon3D 0
PolygonOnTriangulations 0
Surfaces 5
1 -0.70710678118654746 0.70710678118654757 -0.5 -0.81649658092772603 1.2819751242557095e-16 0.57735026918962584 -1.5700924586837754e-16 -1 0 0.57735026918962584 -9.0649330367367927e-17 0.81649658092772603 
1 -0.70710678118654768 -0.70710678118654746 -0.5 -1.281975124255709e-16 -0.81649658092772603 0.57735026918962584 1 -1.5700924586837749e-16 0 9.064933036736789e-17 0.57735026918962584 0.81649658092772603 
1 0.70710678118654746 -0.70710678118654768 -0.5 0.81649658092772603 -6.4098756212785448e-17 0.57735026918962584 7.8504622934188746e-17 1 0 -0.57735026918962584 4.5324665183683945e-17 0.81649658092772603 
1 0.70710678118654757 0.70710678118654746 -0.5 6.4098756212785473e-17 0.81649658092772603 0.57735026918962584 -1 7.8504622934188771e-17 0 -4.5324665183683964e-17 -0.57735026918962584 0.81649658092772603 
1 -0.70710678118654746 0.70710678118654757 -0.5 0 0 1 0.70710678118654746 -0.70710678118654768 0 0.70710678118654768 0.70710678118654746 -0 
Triangulations 0

TShapes 26
Ve
1e-07
-0.707106781186547 0.707106781186548 -0.5
0 0

0101101
*
Ve
1e-07
-0.707106781186548 -0.707106781186547 -0.5
0 0

0101101
*
Ed
 1e-07 1 1 0
1  1 0 0 1.41421356237309
0

0101000
+26 0 -25 0 *
Ve
1e-07
0 0 0.5
0 0

0101101
*
Ed
 1e-07 1 1 0
1  2 0 0 1
0

0101000
+25 0 -23 0 *
Ed
 1e-07 1 1 0
1  3 0 0 1
0

0101000
+26 0 -23 0 *
Wi

0101000
+24 0 +22 0 -21 0 *
Fa
0  1e-07 1 0

0101000
+20 0 *
Ve
1e-07
0.707106781186547 -0.707106781186548 -0.5
0 0

0101101
*
Ed
 1e-07 1 1 0
1  4 0 0 1.4142135623731
0

0101000
+25 0 -18 0 *
Ed
 1e-07 1 1 0
1  5 0 0 1
0

0101000
+18 0 -23 0 *
Wi

0101000
+17 0 +16 0 -22 0 *
Fa
0  1e-07 2 0

0101000
+15 0 *
Ve
1e-07
0.707106781186548 0.707106781186547 -0.5
0 0

0101101
*
Ed
 1e-07 1 1 0
1  6 0 0 1.4142135623731
0

0101000
+18 0 -13 0 *
Ed
 1e-07 1 1 0
1  7 0 0 1
0

0101000
+13 0 -23 0 *
Wi

0101000
+12 0 +11 0 -16 0 *
Fa
0  1e-07 3 0

0101000
+10 0 *
Ed
 1e-07 1 1 0
1  8 0 0 1.41421356237309
0

0101000
+13 0 -26 0 *
Wi

0101000
+8 0 +21 0 -11 0 *
Fa
0  1e-07 4 0

0101000
+7 0 *
Wi

0101100
+24 0 +17 0 +12 0 +8 0 *
Fa
0  1e-07 5 0

0101000
+5 0 *
Sh

0101100
+19 0 +14 0 +9 0 +6 0 -4 0 *
So

0100100
+3 0 *
Co

1100000
+2 0 *

+1 0 
CGM_ATTRIB 9 ENTITY_ID 0 3 1 -2147483648 -1 0 
CGM_ATTRIB 4 UUID 1 36 b22a8725-f77b-498d-b983-a87a253f9626 0 0 
CGM_ATTRIB 9 UNIQUE_ID 0 1 1153382648 0 
*
CGM_ATTRIB 9 ENTITY_ID 0 3 2 -2147483648 -1 0 
CGM_ATTRIB 4 UUID 1 36 d1418a18-6d97-4ced-b2be-66ecfa3cc821 0 0 
CGM_ATTRIB 9 UNIQUE_ID 0 1 1494208263 0 
*
CGM_ATTRIB 9 ENTITY_ID 0 3 1 -2147483648 -1 0 
CGM_ATTRIB 4 UUID 1 36 8074c1e7-301a-4bcf-bca0-2cb6e81a872b 0 0 
CGM_ATTRIB 9 UNIQUE_ID 0 1 1757191366 0 
*
CGM_ATTRIB 9 ENTITY_ID 0 3 3 -2147483648 -1 0 
CGM_ATTRIB 4 UUID 1 36 2f20b96a-4d69-4eae-a7d4-1df90178fea5 0 0 
CGM_ATTRIB 9 UNIQUE_ID 0 1 816734396 0 
*
CGM_ATTRIB 9 ENTITY_ID 0 3 2 -2147483648 -1 0 
CGM_ATTRIB 4 UUID 1 36 eb42ac62-bb02-4cd3-88af-ef8f64563f9b 0 0 
CGM_ATTRIB 9 UNIQUE_ID 0 1 467681788 0 
*
CGM_ATTRIB 9 ENTITY_ID 0 3 3 -2147483648 -1 0 
CGM_ATTRIB 4 UUID 1 36 505ca75a-346a-4f0d-8106-f0c61d010705 0 0 
CGM_ATTRIB 9 UNIQUE_ID 0 1 2020768031 0 
*
*
CGM_ATTRIB 9 ENTITY_ID 0 3 1 -2147483648 -1 0 
CGM_ATTRIB 4 UUID 1 36 2e8346ce-850e-4675-a104-0739a19ab894 0 0 
CGM_ATTRIB 9 UNIQUE_ID 0 1 1970373210 0 
*
CGM_ATTRIB 9 ENTITY_ID 0 3 4 -2147483648 -1 0 
CGM_ATTRIB 4 UUID 1 36 f8b01a00-7efc-4a10-a7c3-7daee8580a0b 0 0 
CGM_ATTRIB 9 UNIQUE_ID 0 1 1681430033 0 
*
CGM_ATTRIB 9 ENTITY_ID 0 3 4 -2147483648 -1 0 
CGM_ATTRIB 4 UUID 1 36 14d4946f-8f2a-4804-86d4-8ecc679da93e 0 0 
CGM_ATTRIB 9 UNIQUE_ID 0 1 1473952505 0 
*
CGM_ATTRIB 9 ENTITY_ID 0 3 5 -2147483648 -1 0 
CGM_ATTRIB 4 UUID 1 36 ee233b73-8b8f-4896-bc1c-5f3f01974d5d 0 0 
CGM_ATTRIB 9 UNIQUE_ID 0 1 342257946 0 
*
*
CGM_ATTRIB 9 ENTITY_ID 0 3 2 -2147483648 -1 0 
CGM_ATTRIB 4 UUID 1 36 ec407017-0c6d-445b-a3c4-ad38a7c62c63 0 0 
CGM_ATTRIB 9 UNIQUE_ID 0 1 407322015 0 
*
CGM_ATTRIB 9 ENTITY_ID 0 3 5 -2147483648 -1 0 
CGM_ATTRIB 4 UUID 1 36 11f99143-6025-4b0d-b03b-bba18ddc3d12 0 0 
CGM_ATTRIB 9 UNIQUE_ID 0 1 1523952635 0 
*
CGM_ATTRIB 9 ENTITY_ID 0 3 6 -2147483648 -1 0 
CGM_ATTRIB 4 UUID 1 36 2b5e9934-9b0b-42ea-8582-cb9754d6070d 0 0 
CGM_ATTRIB 9 UNIQUE_ID 0 1 1258076052 0 
*
CGM_ATTRIB 9 ENTITY_ID 0 3 7 -2147483648 -1 0 
CGM_ATTRIB 4 UUID 1 36 659ee77a-e22e-4317-bc30-4a95c3be206f 0 0 
CGM_ATTRIB 9 UNIQUE_ID 0 1 1720091968 0 
*
*
CGM_ATTRIB 9 ENTITY_ID 0 3 3 -2147483648 -1 0 
CGM_ATTRIB 4 UUID 1 36 2434cabe-bdcb-4960-acbd-e88e14551ee6 0 0 
CGM_ATTRIB 9 UNIQUE_ID 0 1 674956522 0 
*
CGM_ATTRIB 9 ENTITY_ID 0 3 8 -2147483648 -1 0 
CGM_ATTRIB 4 UUID 1 36 efd7e33f-4b21-4516-9fb0-df358a418c18 0 0 
CGM_ATTRIB 9 UNIQUE_ID 0 1 304451963 0 
*
*
CGM_ATTRIB 9 ENTITY_ID 0 3 4 -2147483648 -1 0 
CGM_ATTRIB 4 UUID 1 36 1a108d7a-74c6-4e91-9793-fcb6bb30e5bc 0 0 
CGM_ATTRIB 9 UNIQUE_ID 0 1 1131848674 0 
*
*
CGM_ATTRIB 9 ENTITY_ID 0 3 5 -2147483648 -1 0 
CGM_ATTRIB 4 UUID 1 36 ef144ed8-4887-4158-89e2-64301cab9568 0 0 
CGM_ATTRIB 9 UNIQUE_ID 0 1 1108563132 0 
*
*
CGM_ATTRIB 4 UUID 1 36 703a5e11-63fd-497d-85ed-393fcb98ef06 0 0 
CGM_ATTRIB 9 UNIQUE_ID 0 1 1655621734 0 
CGM_ATTRIB 13 #SINGLELUMP%0 1 9 ENTITY_ID 3 1 -2147483648 -1 0 
CGM_ATTRIB 13 #SINGLELUMP%1 1 9 UNIQUE_ID 1 1958901425 0 
*
*